<svg width="62" height="62" viewBox="0 0 62 62" fill="none" xmlns="http://www.w3.org/2000/svg">
<circle cx="31" cy="31" r="31" fill="#0D0D0D"/>
<g clip-path="url(#clip0_29_2)">
<path d="M32.795 19.3162C31.235 19.8813 28.94 20.1639 25.91 20.1639C27.47 20.756 28.61 21.4826 29.33 22.3438C30.05 23.2049 30.41 24.3218 30.41 25.6943C30.41 27.0668 30.005 28.3047 29.195 29.4081C28.385 30.4846 27.215 31.3323 25.685 31.9513C24.185 32.5702 22.415 32.8797 20.375 32.8797C19.415 32.8797 18.5 32.799 17.63 32.6375C17.39 32.7451 17.195 32.9201 17.045 33.1623C16.925 33.3776 16.865 33.6063 16.865 33.8485C16.865 34.2522 17.03 34.5751 17.36 34.8174C17.72 35.0326 18.425 35.1403 19.475 35.1403H23.075C24.905 35.1403 26.51 35.4094 27.89 35.9476C29.27 36.4859 30.335 37.226 31.085 38.1679C31.835 39.1098 32.21 40.1728 32.21 41.3569C32.21 43.5906 31.13 45.3264 28.97 46.5643C26.84 47.8292 23.75 48.4616 19.7 48.4616C16.79 48.4616 14.495 48.179 12.815 47.6139C11.135 47.0757 9.95002 46.3087 9.26002 45.3129C8.60002 44.3172 8.27002 43.0658 8.27002 41.5588H14.66C14.66 42.2046 14.795 42.716 15.065 43.0927C15.365 43.4695 15.89 43.7521 16.64 43.9404C17.39 44.1288 18.47 44.223 19.88 44.223C21.83 44.223 23.18 44.0077 23.93 43.5771C24.68 43.1735 25.055 42.5814 25.055 41.801C25.055 41.1551 24.77 40.6437 24.2 40.267C23.63 39.8902 22.775 39.7018 21.635 39.7018H18.17C15.71 39.7018 13.865 39.3116 12.635 38.5312C11.435 37.7238 10.835 36.7012 10.835 35.4632C10.835 34.6828 11.09 33.9293 11.6 33.2026C12.11 32.4491 12.8 31.8301 13.67 31.3457C12.17 30.6191 11.075 29.7714 10.385 28.8026C9.72502 27.8068 9.39502 26.6093 9.39502 25.2099C9.39502 22.8147 10.355 20.9174 12.275 19.518C14.195 18.0917 16.73 17.3785 19.88 17.3785C22.28 17.4324 24.305 17.2171 25.955 16.7326C27.635 16.2482 29.36 15.5351 31.13 14.5932L32.795 19.3162ZM20.06 21.5768C18.95 21.5768 18.065 21.8997 17.405 22.5456C16.775 23.1646 16.46 24.0257 16.46 25.1291C16.46 26.2863 16.775 27.1879 17.405 27.8338C18.065 28.4527 18.95 28.7622 20.06 28.7622C21.23 28.7622 22.115 28.4527 22.715 27.8338C23.345 27.2148 23.66 26.2863 23.66 25.0484C23.66 22.734 22.46 21.5768 20.06 21.5768Z" fill="url(#paint0_linear_29_2)"/>
<path d="M51.335 18.7824C52.565 18.7824 53.765 18.9574 54.935 19.3072L54.08 27.1789H50.48V22.8192C48.83 22.8461 47.39 23.4382 46.16 24.5954C44.96 25.7526 44 27.3807 43.28 29.4799V37.3919H48.05V40.6213H34.73V37.3919H38.24V22.5366H34.73V19.3072H42.065L42.965 24.2321C43.895 22.4021 45.02 21.043 46.34 20.1549C47.69 19.2399 49.355 18.7824 51.335 18.7824Z" fill="url(#paint1_linear_29_2)"/>
</g>
<defs>
<linearGradient id="paint0_linear_29_2" x1="20.7049" y1="2" x2="20.7049" y2="50.5294" gradientUnits="userSpaceOnUse">
<stop stop-color="#7EE9F0"/>
<stop offset="1" stop-color="#25B7AE"/>
</linearGradient>
<linearGradient id="paint1_linear_29_2" x1="44.0246" y1="3.12131" x2="44.0246" y2="51.6507" gradientUnits="userSpaceOnUse">
<stop stop-color="#7EE9F0"/>
<stop offset="1" stop-color="#25B7AE"/>
</linearGradient>
<clipPath id="clip0_29_2">
<rect width="50" height="50" fill="white" transform="translate(8 2)"/>
</clipPath>
</defs>
</svg>
